<?xml version="1.0" encoding="utf-8" standalone="no"?>
<!DOCTYPE svg PUBLIC "-//W3C//DTD SVG 1.1//EN"
  "http://www.w3.org/Graphics/SVG/1.1/DTD/svg11.dtd">
<!-- Created with matplotlib (http://matplotlib.org/) -->
<svg height="360pt" version="1.1" viewBox="0 0 360 360" width="360pt" xmlns="http://www.w3.org/2000/svg" xmlns:xlink="http://www.w3.org/1999/xlink">
 <defs>
  <style type="text/css">
*{stroke-linecap:butt;stroke-linejoin:round;}
  </style>
 </defs>
 <g id="figure_1">
  <g id="patch_1">
   <path d="M 0 360 
L 360 360 
L 360 0 
L 0 0 
z
" style="fill:#ffffff;"/>
  </g>
  <g id="axes_1">
   <g id="patch_2">
    <path d="M 44.425 318.2 
L 345.7 318.2 
L 345.7 14.3 
L 44.425 14.3 
z
" style="fill:#ffffff;"/>
   </g>
   <g id="PathCollection_1">
    <defs>
     <path d="M 0 3 
C 0.795609 3 1.55874 2.683901 2.12132 2.12132 
C 2.683901 1.55874 3 0.795609 3 0 
C 3 -0.795609 2.683901 -1.55874 2.12132 -2.12132 
C 1.55874 -2.683901 0.795609 -3 0 -3 
C -0.795609 -3 -1.55874 -2.683901 -2.12132 -2.12132 
C -2.683901 -1.55874 -3 -0.795609 -3 0 
C -3 0.795609 -2.683901 1.55874 -2.12132 2.12132 
C -1.55874 2.683901 -0.795609 3 0 3 
z
" id="m9eeab9a1fa" style="stroke:#1f77b4;stroke-opacity:0.8;"/>
    </defs>
    <g clip-path="url(#pcbe236da8e)">
     <use style="fill:#1f77b4;fill-opacity:0.8;stroke:#1f77b4;stroke-opacity:0.8;" x="109.260659" xlink:href="#m9eeab9a1fa" y="266.092484"/>
     <use style="fill:#1f77b4;fill-opacity:0.8;stroke:#1f77b4;stroke-opacity:0.8;" x="60.997123" xlink:href="#m9eeab9a1fa" y="284.077806"/>
     <use style="fill:#1f77b4;fill-opacity:0.8;stroke:#1f77b4;stroke-opacity:0.8;" x="77.084968" xlink:href="#m9eeab9a1fa" y="243.610833"/>
     <use style="fill:#1f77b4;fill-opacity:0.8;stroke:#1f77b4;stroke-opacity:0.8;" x="87.810198" xlink:href="#m9eeab9a1fa" y="279.581475"/>
     <use style="fill:#1f77b4;fill-opacity:0.8;stroke:#1f77b4;stroke-opacity:0.8;" x="152.161579" xlink:href="#m9eeab9a1fa" y="216.632851"/>
     <use style="fill:#1f77b4;fill-opacity:0.8;stroke:#1f77b4;stroke-opacity:0.8;" x="87.810198" xlink:href="#m9eeab9a1fa" y="279.581475"/>
     <use style="fill:#1f77b4;fill-opacity:0.8;stroke:#1f77b4;stroke-opacity:0.8;" x="66.359738" xlink:href="#m9eeab9a1fa" y="275.085145"/>
     <use style="fill:#1f77b4;fill-opacity:0.8;stroke:#1f77b4;stroke-opacity:0.8;" x="329.127877" xlink:href="#m9eeab9a1fa" y="113.217253"/>
     <use style="fill:#1f77b4;fill-opacity:0.8;stroke:#1f77b4;stroke-opacity:0.8;" x="66.359738" xlink:href="#m9eeab9a1fa" y="266.092484"/>
     <use style="fill:#1f77b4;fill-opacity:0.8;stroke:#1f77b4;stroke-opacity:0.8;" x="136.073734" xlink:href="#m9eeab9a1fa" y="207.64019"/>
     <use style="fill:#1f77b4;fill-opacity:0.8;stroke:#1f77b4;stroke-opacity:0.8;" x="114.623274" xlink:href="#m9eeab9a1fa" y="261.596154"/>
     <use style="fill:#1f77b4;fill-opacity:0.8;stroke:#1f77b4;stroke-opacity:0.8;" x="98.535428" xlink:href="#m9eeab9a1fa" y="243.610833"/>
     <use style="fill:#1f77b4;fill-opacity:0.8;stroke:#1f77b4;stroke-opacity:0.8;" x="98.535428" xlink:href="#m9eeab9a1fa" y="252.603493"/>
     <use style="fill:#1f77b4;fill-opacity:0.8;stroke:#1f77b4;stroke-opacity:0.8;" x="119.985889" xlink:href="#m9eeab9a1fa" y="225.625511"/>
    </g>
   </g>
   <g id="PolyCollection_1">
    <path clip-path="url(#pcbe236da8e)" d="M 44.425 277.621195 
L 44.425 304.386364 
L 47.468182 301.578593 
L 50.511364 298.911833 
L 53.554545 296.159247 
L 56.597727 293.557776 
L 59.640909 291.029936 
L 62.684091 288.450234 
L 65.727273 286.058238 
L 68.770455 283.846655 
L 71.813636 281.230114 
L 74.856818 278.771958 
L 77.9 276.466519 
L 80.943182 274.171793 
L 83.986364 272.103303 
L 87.029545 269.87635 
L 90.072727 267.955943 
L 93.115909 266.105044 
L 96.159091 264.127796 
L 99.202273 262.302208 
L 102.245455 260.05518 
L 105.288636 258.117236 
L 108.331818 256.561131 
L 111.375 254.875921 
L 114.418182 253.115891 
L 117.461364 251.213592 
L 120.504545 249.325345 
L 123.547727 247.637635 
L 126.590909 245.768181 
L 129.634091 243.762424 
L 132.677273 242.13559 
L 135.720455 240.36388 
L 138.763636 238.402856 
L 141.806818 236.446933 
L 144.85 234.52439 
L 147.893182 232.525691 
L 150.936364 230.646541 
L 153.979545 228.785548 
L 157.022727 227.178006 
L 160.065909 225.484425 
L 163.109091 223.756229 
L 166.152273 222.028033 
L 169.195455 220.299458 
L 172.238636 218.563393 
L 175.281818 216.824971 
L 178.325 215.096067 
L 181.368182 213.642308 
L 184.411364 212.179019 
L 187.454545 210.459444 
L 190.497727 208.73987 
L 193.540909 207.15919 
L 196.584091 205.631823 
L 199.627273 204.283309 
L 202.670455 202.931602 
L 205.713636 201.579896 
L 208.756818 200.134994 
L 211.8 198.549344 
L 214.843182 196.963695 
L 217.886364 195.374187 
L 220.929545 193.783254 
L 223.972727 192.19232 
L 227.015909 190.601387 
L 230.059091 189.010454 
L 233.102273 187.419521 
L 236.145455 185.828588 
L 239.188636 184.237654 
L 242.231818 182.646721 
L 245.275 181.135703 
L 248.318182 179.629262 
L 251.361364 178.122822 
L 254.404545 176.616382 
L 257.447727 175.109941 
L 260.490909 173.603501 
L 263.534091 172.097061 
L 266.577273 170.59062 
L 269.620455 169.08418 
L 272.663636 167.57774 
L 275.706818 166.0713 
L 278.75 164.564859 
L 281.793182 163.058419 
L 284.836364 161.551979 
L 287.879545 160.045538 
L 290.922727 158.539098 
L 293.965909 157.032658 
L 297.009091 155.526217 
L 300.052273 154.00386 
L 303.095455 152.448257 
L 306.138636 150.892653 
L 309.181818 149.33705 
L 312.225 147.781446 
L 315.268182 146.225842 
L 318.311364 144.670239 
L 321.354545 143.114635 
L 324.397727 141.559032 
L 327.440909 140.078989 
L 330.484091 138.616062 
L 333.527273 137.153136 
L 336.570455 135.69021 
L 339.613636 134.227284 
L 342.656818 132.764357 
L 345.7 131.301431 
L 345.7 28.113636 
L 345.7 28.113636 
L 342.656818 30.912525 
L 339.613636 33.65961 
L 336.570455 36.346676 
L 333.527273 39.033741 
L 330.484091 41.720806 
L 327.440909 44.407872 
L 324.397727 47.094937 
L 321.354545 49.782002 
L 318.311364 52.478919 
L 315.268182 55.223108 
L 312.225 57.967298 
L 309.181818 60.711487 
L 306.138636 63.456078 
L 303.095455 66.202921 
L 300.052273 68.949764 
L 297.009091 71.696608 
L 293.965909 74.443451 
L 290.922727 77.190294 
L 287.879545 79.97649 
L 284.836364 82.767069 
L 281.793182 85.557649 
L 278.75 88.350232 
L 275.706818 91.142889 
L 272.663636 93.935547 
L 269.620455 96.73944 
L 266.577273 99.567326 
L 263.534091 102.395212 
L 260.490909 105.223098 
L 257.447727 108.050985 
L 254.404545 110.878871 
L 251.361364 113.517717 
L 248.318182 116.369356 
L 245.275 119.232348 
L 242.231818 122.09534 
L 239.188636 124.958333 
L 236.145455 127.821325 
L 233.102273 130.674075 
L 230.059091 133.501961 
L 227.015909 136.329847 
L 223.972727 139.054141 
L 220.929545 141.730723 
L 217.886364 144.407306 
L 214.843182 147.083888 
L 211.8 149.770526 
L 208.756818 152.559304 
L 205.713636 155.348082 
L 202.670455 158.13686 
L 199.627273 160.926728 
L 196.584091 163.722931 
L 193.540909 166.519135 
L 190.497727 169.407806 
L 187.454545 172.26633 
L 184.411364 174.894696 
L 181.368182 177.683436 
L 178.325 180.476146 
L 175.281818 183.223521 
L 172.238636 186.009438 
L 169.195455 188.69386 
L 166.152273 191.226175 
L 163.109091 193.758489 
L 160.065909 196.292492 
L 157.022727 198.860178 
L 153.979545 201.389381 
L 150.936364 204.219369 
L 147.893182 206.894344 
L 144.85 209.662201 
L 141.806818 212.448125 
L 138.763636 214.923427 
L 135.720455 217.746076 
L 132.677273 220.640554 
L 129.634091 223.055588 
L 126.590909 225.714577 
L 123.547727 228.13091 
L 120.504545 230.462047 
L 117.461364 232.789545 
L 114.418182 235.058281 
L 111.375 237.186481 
L 108.331818 239.327417 
L 105.288636 241.527796 
L 102.245455 243.587805 
L 99.202273 245.495869 
L 96.159091 247.313483 
L 93.115909 249.239898 
L 90.072727 251.218865 
L 87.029545 253.217267 
L 83.986364 255.047596 
L 80.943182 256.808786 
L 77.9 258.527709 
L 74.856818 260.362181 
L 71.813636 262.142401 
L 68.770455 263.77535 
L 65.727273 265.604705 
L 62.684091 267.248462 
L 59.640909 269.033648 
L 56.597727 270.71008 
L 53.554545 272.473964 
L 50.511364 274.22608 
L 47.468182 275.79684 
L 44.425 277.621195 
z
" style="fill:#1f77b4;fill-opacity:0.15;"/>
   </g>
   <g id="matplotlib.axis_1">
    <g id="xtick_1">
     <g id="line2d_1">
      <defs>
       <path d="M 0 0 
L 0 3.5 
" id="m90ed512f0d" style="stroke:#000000;stroke-width:0.8;"/>
      </defs>
      <g>
       <use style="stroke:#000000;stroke-width:0.8;" x="44.909277" xlink:href="#m90ed512f0d" y="318.2"/>
      </g>
     </g>
     <g id="text_1">
      <!-- 0 -->
      <defs>
       <path d="M 31.78125 66.40625 
Q 24.171875 66.40625 20.328125 58.90625 
Q 16.5 51.421875 16.5 36.375 
Q 16.5 21.390625 20.328125 13.890625 
Q 24.171875 6.390625 31.78125 6.390625 
Q 39.453125 6.390625 43.28125 13.890625 
Q 47.125 21.390625 47.125 36.375 
Q 47.125 51.421875 43.28125 58.90625 
Q 39.453125 66.40625 31.78125 66.40625 
z
M 31.78125 74.21875 
Q 44.046875 74.21875 50.515625 64.515625 
Q 56.984375 54.828125 56.984375 36.375 
Q 56.984375 17.96875 50.515625 8.265625 
Q 44.046875 -1.421875 31.78125 -1.421875 
Q 19.53125 -1.421875 13.0625 8.265625 
Q 6.59375 17.96875 6.59375 36.375 
Q 6.59375 54.828125 13.0625 64.515625 
Q 19.53125 74.21875 31.78125 74.21875 
z
" id="DejaVuSans-30"/>
      </defs>
      <g transform="translate(41.728027 332.798437)scale(0.1 -0.1)">
       <use xlink:href="#DejaVuSans-30"/>
      </g>
     </g>
    </g>
    <g id="xtick_2">
     <g id="line2d_2">
      <g>
       <use style="stroke:#000000;stroke-width:0.8;" x="98.535428" xlink:href="#m90ed512f0d" y="318.2"/>
      </g>
     </g>
     <g id="text_2">
      <!-- 10 -->
      <defs>
       <path d="M 12.40625 8.296875 
L 28.515625 8.296875 
L 28.515625 63.921875 
L 10.984375 60.40625 
L 10.984375 69.390625 
L 28.421875 72.90625 
L 38.28125 72.90625 
L 38.28125 8.296875 
L 54.390625 8.296875 
L 54.390625 0 
L 12.40625 0 
z
" id="DejaVuSans-31"/>
      </defs>
      <g transform="translate(92.172928 332.798437)scale(0.1 -0.1)">
       <use xlink:href="#DejaVuSans-31"/>
       <use x="63.623047" xlink:href="#DejaVuSans-30"/>
      </g>
     </g>
    </g>
    <g id="xtick_3">
     <g id="line2d_3">
      <g>
       <use style="stroke:#000000;stroke-width:0.8;" x="152.161579" xlink:href="#m90ed512f0d" y="318.2"/>
      </g>
     </g>
     <g id="text_3">
      <!-- 20 -->
      <defs>
       <path d="M 19.1875 8.296875 
L 53.609375 8.296875 
L 53.609375 0 
L 7.328125 0 
L 7.328125 8.296875 
Q 12.9375 14.109375 22.625 23.890625 
Q 32.328125 33.6875 34.8125 36.53125 
Q 39.546875 41.84375 41.421875 45.53125 
Q 43.3125 49.21875 43.3125 52.78125 
Q 43.3125 58.59375 39.234375 62.25 
Q 35.15625 65.921875 28.609375 65.921875 
Q 23.96875 65.921875 18.8125 64.3125 
Q 13.671875 62.703125 7.8125 59.421875 
L 7.8125 69.390625 
Q 13.765625 71.78125 18.9375 73 
Q 24.125 74.21875 28.421875 74.21875 
Q 39.75 74.21875 46.484375 68.546875 
Q 53.21875 62.890625 53.21875 53.421875 
Q 53.21875 48.921875 51.53125 44.890625 
Q 49.859375 40.875 45.40625 35.40625 
Q 44.1875 33.984375 37.640625 27.21875 
Q 31.109375 20.453125 19.1875 8.296875 
z
" id="DejaVuSans-32"/>
      </defs>
      <g transform="translate(145.799079 332.798437)scale(0.1 -0.1)">
       <use xlink:href="#DejaVuSans-32"/>
       <use x="63.623047" xlink:href="#DejaVuSans-30"/>
      </g>
     </g>
    </g>
    <g id="xtick_4">
     <g id="line2d_4">
      <g>
       <use style="stroke:#000000;stroke-width:0.8;" x="205.78773" xlink:href="#m90ed512f0d" y="318.2"/>
      </g>
     </g>
     <g id="text_4">
      <!-- 30 -->
      <defs>
       <path d="M 40.578125 39.3125 
Q 47.65625 37.796875 51.625 33 
Q 55.609375 28.21875 55.609375 21.1875 
Q 55.609375 10.40625 48.1875 4.484375 
Q 40.765625 -1.421875 27.09375 -1.421875 
Q 22.515625 -1.421875 17.65625 -0.515625 
Q 12.796875 0.390625 7.625 2.203125 
L 7.625 11.71875 
Q 11.71875 9.328125 16.59375 8.109375 
Q 21.484375 6.890625 26.8125 6.890625 
Q 36.078125 6.890625 40.9375 10.546875 
Q 45.796875 14.203125 45.796875 21.1875 
Q 45.796875 27.640625 41.28125 31.265625 
Q 36.765625 34.90625 28.71875 34.90625 
L 20.21875 34.90625 
L 20.21875 43.015625 
L 29.109375 43.015625 
Q 36.375 43.015625 40.234375 45.921875 
Q 44.09375 48.828125 44.09375 54.296875 
Q 44.09375 59.90625 40.109375 62.90625 
Q 36.140625 65.921875 28.71875 65.921875 
Q 24.65625 65.921875 20.015625 65.03125 
Q 15.375 64.15625 9.8125 62.3125 
L 9.8125 71.09375 
Q 15.4375 72.65625 20.34375 73.4375 
Q 25.25 74.21875 29.59375 74.21875 
Q 40.828125 74.21875 47.359375 69.109375 
Q 53.90625 64.015625 53.90625 55.328125 
Q 53.90625 49.265625 50.4375 45.09375 
Q 46.96875 40.921875 40.578125 39.3125 
z
" id="DejaVuSans-33"/>
      </defs>
      <g transform="translate(199.42523 332.798437)scale(0.1 -0.1)">
       <use xlink:href="#DejaVuSans-33"/>
       <use x="63.623047" xlink:href="#DejaVuSans-30"/>
      </g>
     </g>
    </g>
    <g id="xtick_5">
     <g id="line2d_5">
      <g>
       <use style="stroke:#000000;stroke-width:0.8;" x="259.413881" xlink:href="#m90ed512f0d" y="318.2"/>
      </g>
     </g>
     <g id="text_5">
      <!-- 40 -->
      <defs>
       <path d="M 37.796875 64.3125 
L 12.890625 25.390625 
L 37.796875 25.390625 
z
M 35.203125 72.90625 
L 47.609375 72.90625 
L 47.609375 25.390625 
L 58.015625 25.390625 
L 58.015625 17.1875 
L 47.609375 17.1875 
L 47.609375 0 
L 37.796875 0 
L 37.796875 17.1875 
L 4.890625 17.1875 
L 4.890625 26.703125 
z
" id="DejaVuSans-34"/>
      </defs>
      <g transform="translate(253.051381 332.798437)scale(0.1 -0.1)">
       <use xlink:href="#DejaVuSans-34"/>
       <use x="63.623047" xlink:href="#DejaVuSans-30"/>
      </g>
     </g>
    </g>
    <g id="xtick_6">
     <g id="line2d_6">
      <g>
       <use style="stroke:#000000;stroke-width:0.8;" x="313.040032" xlink:href="#m90ed512f0d" y="318.2"/>
      </g>
     </g>
     <g id="text_6">
      <!-- 50 -->
      <defs>
       <path d="M 10.796875 72.90625 
L 49.515625 72.90625 
L 49.515625 64.59375 
L 19.828125 64.59375 
L 19.828125 46.734375 
Q 21.96875 47.46875 24.109375 47.828125 
Q 26.265625 48.1875 28.421875 48.1875 
Q 40.625 48.1875 47.75 41.5 
Q 54.890625 34.8125 54.890625 23.390625 
Q 54.890625 11.625 47.5625 5.09375 
Q 40.234375 -1.421875 26.90625 -1.421875 
Q 22.3125 -1.421875 17.546875 -0.640625 
Q 12.796875 0.140625 7.71875 1.703125 
L 7.71875 11.625 
Q 12.109375 9.234375 16.796875 8.0625 
Q 21.484375 6.890625 26.703125 6.890625 
Q 35.15625 6.890625 40.078125 11.328125 
Q 45.015625 15.765625 45.015625 23.390625 
Q 45.015625 31 40.078125 35.4375 
Q 35.15625 39.890625 26.703125 39.890625 
Q 22.75 39.890625 18.8125 39.015625 
Q 14.890625 38.140625 10.796875 36.28125 
z
" id="DejaVuSans-35"/>
      </defs>
      <g transform="translate(306.677532 332.798437)scale(0.1 -0.1)">
       <use xlink:href="#DejaVuSans-35"/>
       <use x="63.623047" xlink:href="#DejaVuSans-30"/>
      </g>
     </g>
    </g>
    <g id="text_7">
     <!-- Restaurant -->
     <defs>
      <path d="M 44.390625 34.1875 
Q 47.5625 33.109375 50.5625 29.59375 
Q 53.5625 26.078125 56.59375 19.921875 
L 66.609375 0 
L 56 0 
L 46.6875 18.703125 
Q 43.0625 26.03125 39.671875 28.421875 
Q 36.28125 30.8125 30.421875 30.8125 
L 19.671875 30.8125 
L 19.671875 0 
L 9.8125 0 
L 9.8125 72.90625 
L 32.078125 72.90625 
Q 44.578125 72.90625 50.734375 67.671875 
Q 56.890625 62.453125 56.890625 51.90625 
Q 56.890625 45.015625 53.6875 40.46875 
Q 50.484375 35.9375 44.390625 34.1875 
z
M 19.671875 64.796875 
L 19.671875 38.921875 
L 32.078125 38.921875 
Q 39.203125 38.921875 42.84375 42.21875 
Q 46.484375 45.515625 46.484375 51.90625 
Q 46.484375 58.296875 42.84375 61.546875 
Q 39.203125 64.796875 32.078125 64.796875 
z
" id="DejaVuSans-52"/>
      <path d="M 56.203125 29.59375 
L 56.203125 25.203125 
L 14.890625 25.203125 
Q 15.484375 15.921875 20.484375 11.0625 
Q 25.484375 6.203125 34.421875 6.203125 
Q 39.59375 6.203125 44.453125 7.46875 
Q 49.3125 8.734375 54.109375 11.28125 
L 54.109375 2.78125 
Q 49.265625 0.734375 44.1875 -0.34375 
Q 39.109375 -1.421875 33.890625 -1.421875 
Q 20.796875 -1.421875 13.15625 6.1875 
Q 5.515625 13.8125 5.515625 26.8125 
Q 5.515625 40.234375 12.765625 48.109375 
Q 20.015625 56 32.328125 56 
Q 43.359375 56 49.78125 48.890625 
Q 56.203125 41.796875 56.203125 29.59375 
z
M 47.21875 32.234375 
Q 47.125 39.59375 43.09375 43.984375 
Q 39.0625 48.390625 32.421875 48.390625 
Q 24.90625 48.390625 20.390625 44.140625 
Q 15.875 39.890625 15.1875 32.171875 
z
" id="DejaVuSans-65"/>
      <path d="M 44.28125 53.078125 
L 44.28125 44.578125 
Q 40.484375 46.53125 36.375 47.5 
Q 32.28125 48.484375 27.875 48.484375 
Q 21.1875 48.484375 17.84375 46.4375 
Q 14.5 44.390625 14.5 40.28125 
Q 14.5 37.15625 16.890625 35.375 
Q 19.28125 33.59375 26.515625 31.984375 
L 29.59375 31.296875 
Q 39.15625 29.25 43.1875 25.515625 
Q 47.21875 21.78125 47.21875 15.09375 
Q 47.21875 7.46875 41.1875 3.015625 
Q 35.15625 -1.421875 24.609375 -1.421875 
Q 20.21875 -1.421875 15.453125 -0.5625 
Q 10.6875 0.296875 5.421875 2 
L 5.421875 11.28125 
Q 10.40625 8.6875 15.234375 7.390625 
Q 20.0625 6.109375 24.8125 6.109375 
Q 31.15625 6.109375 34.5625 8.28125 
Q 37.984375 10.453125 37.984375 14.40625 
Q 37.984375 18.0625 35.515625 20.015625 
Q 33.0625 21.96875 24.703125 23.78125 
L 21.578125 24.515625 
Q 13.234375 26.265625 9.515625 29.90625 
Q 5.8125 33.546875 5.8125 39.890625 
Q 5.8125 47.609375 11.28125 51.796875 
Q 16.75 56 26.8125 56 
Q 31.78125 56 36.171875 55.265625 
Q 40.578125 54.546875 44.28125 53.078125 
z
" id="DejaVuSans-73"/>
      <path d="M 18.3125 70.21875 
L 18.3125 54.6875 
L 36.8125 54.6875 
L 36.8125 47.703125 
L 18.3125 47.703125 
L 18.3125 18.015625 
Q 18.3125 11.328125 20.140625 9.421875 
Q 21.96875 7.515625 27.59375 7.515625 
L 36.8125 7.515625 
L 36.8125 0 
L 27.59375 0 
Q 17.1875 0 13.234375 3.875 
Q 9.28125 7.765625 9.28125 18.015625 
L 9.28125 47.703125 
L 2.6875 47.703125 
L 2.6875 54.6875 
L 9.28125 54.6875 
L 9.28125 70.21875 
z
" id="DejaVuSans-74"/>
      <path d="M 34.28125 27.484375 
Q 23.390625 27.484375 19.1875 25 
Q 14.984375 22.515625 14.984375 16.5 
Q 14.984375 11.71875 18.140625 8.90625 
Q 21.296875 6.109375 26.703125 6.109375 
Q 34.1875 6.109375 38.703125 11.40625 
Q 43.21875 16.703125 43.21875 25.484375 
L 43.21875 27.484375 
z
M 52.203125 31.203125 
L 52.203125 0 
L 43.21875 0 
L 43.21875 8.296875 
Q 40.140625 3.328125 35.546875 0.953125 
Q 30.953125 -1.421875 24.3125 -1.421875 
Q 15.921875 -1.421875 10.953125 3.296875 
Q 6 8.015625 6 15.921875 
Q 6 25.140625 12.171875 29.828125 
Q 18.359375 34.515625 30.609375 34.515625 
L 43.21875 34.515625 
L 43.21875 35.40625 
Q 43.21875 41.609375 39.140625 45 
Q 35.0625 48.390625 27.6875 48.390625 
Q 23 48.390625 18.546875 47.265625 
Q 14.109375 46.140625 10.015625 43.890625 
L 10.015625 52.203125 
Q 14.9375 54.109375 19.578125 55.046875 
Q 24.21875 56 28.609375 56 
Q 40.484375 56 46.34375 49.84375 
Q 52.203125 43.703125 52.203125 31.203125 
z
" id="DejaVuSans-61"/>
      <path d="M 8.5 21.578125 
L 8.5 54.6875 
L 17.484375 54.6875 
L 17.484375 21.921875 
Q 17.484375 14.15625 20.5 10.265625 
Q 23.53125 6.390625 29.59375 6.390625 
Q 36.859375 6.390625 41.078125 11.03125 
Q 45.3125 15.671875 45.3125 23.6875 
L 45.3125 54.6875 
L 54.296875 54.6875 
L 54.296875 0 
L 45.3125 0 
L 45.3125 8.40625 
Q 42.046875 3.421875 37.71875 1 
Q 33.40625 -1.421875 27.6875 -1.421875 
Q 18.265625 -1.421875 13.375 4.4375 
Q 8.5 10.296875 8.5 21.578125 
z
M 31.109375 56 
z
" id="DejaVuSans-75"/>
      <path d="M 41.109375 46.296875 
Q 39.59375 47.171875 37.8125 47.578125 
Q 36.03125 48 33.890625 48 
Q 26.265625 48 22.1875 43.046875 
Q 18.109375 38.09375 18.109375 28.8125 
L 18.109375 0 
L 9.078125 0 
L 9.078125 54.6875 
L 18.109375 54.6875 
L 18.109375 46.1875 
Q 20.953125 51.171875 25.484375 53.578125 
Q 30.03125 56 36.53125 56 
Q 37.453125 56 38.578125 55.875 
Q 39.703125 55.765625 41.0625 55.515625 
z
" id="DejaVuSans-72"/>
      <path d="M 54.890625 33.015625 
L 54.890625 0 
L 45.90625 0 
L 45.90625 32.71875 
Q 45.90625 40.484375 42.875 44.328125 
Q 39.84375 48.1875 33.796875 48.1875 
Q 26.515625 48.1875 22.3125 43.546875 
Q 18.109375 38.921875 18.109375 30.90625 
L 18.109375 0 
L 9.078125 0 
L 9.078125 54.6875 
L 18.109375 54.6875 
L 18.109375 46.1875 
Q 21.34375 51.125 25.703125 53.5625 
Q 30.078125 56 35.796875 56 
Q 45.21875 56 50.046875 50.171875 
Q 54.890625 44.34375 54.890625 33.015625 
z
" id="DejaVuSans-6e"/>
     </defs>
     <g transform="translate(167.46875 346.476562)scale(0.1 -0.1)">
      <use xlink:href="#DejaVuSans-52"/>
      <use x="69.419922" xlink:href="#DejaVuSans-65"/>
      <use x="130.943359" xlink:href="#DejaVuSans-73"/>
      <use x="183.042969" xlink:href="#DejaVuSans-74"/>
      <use x="222.251953" xlink:href="#DejaVuSans-61"/>
      <use x="283.53125" xlink:href="#DejaVuSans-75"/>
      <use x="346.910156" xlink:href="#DejaVuSans-72"/>
      <use x="388.023438" xlink:href="#DejaVuSans-61"/>
      <use x="449.302734" xlink:href="#DejaVuSans-6e"/>
      <use x="512.681641" xlink:href="#DejaVuSans-74"/>
     </g>
    </g>
   </g>
   <g id="matplotlib.axis_2">
    <g id="ytick_1">
     <g id="line2d_7">
      <defs>
       <path d="M 0 0 
L -3.5 0 
" id="mbf555149eb" style="stroke:#000000;stroke-width:0.8;"/>
      </defs>
      <g>
       <use style="stroke:#000000;stroke-width:0.8;" x="44.425" xlink:href="#mbf555149eb" y="293.070466"/>
      </g>
     </g>
     <g id="text_8">
      <!-- 0 -->
      <g transform="translate(31.0625 296.869685)scale(0.1 -0.1)">
       <use xlink:href="#DejaVuSans-30"/>
      </g>
     </g>
    </g>
    <g id="ytick_2">
     <g id="line2d_8">
      <g>
       <use style="stroke:#000000;stroke-width:0.8;" x="44.425" xlink:href="#mbf555149eb" y="248.107163"/>
      </g>
     </g>
     <g id="text_9">
      <!-- 10 -->
      <g transform="translate(24.7 251.906382)scale(0.1 -0.1)">
       <use xlink:href="#DejaVuSans-31"/>
       <use x="63.623047" xlink:href="#DejaVuSans-30"/>
      </g>
     </g>
    </g>
    <g id="ytick_3">
     <g id="line2d_9">
      <g>
       <use style="stroke:#000000;stroke-width:0.8;" x="44.425" xlink:href="#mbf555149eb" y="203.14386"/>
      </g>
     </g>
     <g id="text_10">
      <!-- 20 -->
      <g transform="translate(24.7 206.943079)scale(0.1 -0.1)">
       <use xlink:href="#DejaVuSans-32"/>
       <use x="63.623047" xlink:href="#DejaVuSans-30"/>
      </g>
     </g>
    </g>
    <g id="ytick_4">
     <g id="line2d_10">
      <g>
       <use style="stroke:#000000;stroke-width:0.8;" x="44.425" xlink:href="#mbf555149eb" y="158.180557"/>
      </g>
     </g>
     <g id="text_11">
      <!-- 30 -->
      <g transform="translate(24.7 161.979775)scale(0.1 -0.1)">
       <use xlink:href="#DejaVuSans-33"/>
       <use x="63.623047" xlink:href="#DejaVuSans-30"/>
      </g>
     </g>
    </g>
    <g id="ytick_5">
     <g id="line2d_11">
      <g>
       <use style="stroke:#000000;stroke-width:0.8;" x="44.425" xlink:href="#mbf555149eb" y="113.217253"/>
      </g>
     </g>
     <g id="text_12">
      <!-- 40 -->
      <g transform="translate(24.7 117.016472)scale(0.1 -0.1)">
       <use xlink:href="#DejaVuSans-34"/>
       <use x="63.623047" xlink:href="#DejaVuSans-30"/>
      </g>
     </g>
    </g>
    <g id="ytick_6">
     <g id="line2d_12">
      <g>
       <use style="stroke:#000000;stroke-width:0.8;" x="44.425" xlink:href="#mbf555149eb" y="68.25395"/>
      </g>
     </g>
     <g id="text_13">
      <!-- 50 -->
      <g transform="translate(24.7 72.053169)scale(0.1 -0.1)">
       <use xlink:href="#DejaVuSans-35"/>
       <use x="63.623047" xlink:href="#DejaVuSans-30"/>
      </g>
     </g>
    </g>
    <g id="ytick_7">
     <g id="line2d_13">
      <g>
       <use style="stroke:#000000;stroke-width:0.8;" x="44.425" xlink:href="#mbf555149eb" y="23.290647"/>
      </g>
     </g>
     <g id="text_14">
      <!-- 60 -->
      <defs>
       <path d="M 33.015625 40.375 
Q 26.375 40.375 22.484375 35.828125 
Q 18.609375 31.296875 18.609375 23.390625 
Q 18.609375 15.53125 22.484375 10.953125 
Q 26.375 6.390625 33.015625 6.390625 
Q 39.65625 6.390625 43.53125 10.953125 
Q 47.40625 15.53125 47.40625 23.390625 
Q 47.40625 31.296875 43.53125 35.828125 
Q 39.65625 40.375 33.015625 40.375 
z
M 52.59375 71.296875 
L 52.59375 62.3125 
Q 48.875 64.0625 45.09375 64.984375 
Q 41.3125 65.921875 37.59375 65.921875 
Q 27.828125 65.921875 22.671875 59.328125 
Q 17.53125 52.734375 16.796875 39.40625 
Q 19.671875 43.65625 24.015625 45.921875 
Q 28.375 48.1875 33.59375 48.1875 
Q 44.578125 48.1875 50.953125 41.515625 
Q 57.328125 34.859375 57.328125 23.390625 
Q 57.328125 12.15625 50.6875 5.359375 
Q 44.046875 -1.421875 33.015625 -1.421875 
Q 20.359375 -1.421875 13.671875 8.265625 
Q 6.984375 17.96875 6.984375 36.375 
Q 6.984375 53.65625 15.1875 63.9375 
Q 23.390625 74.21875 37.203125 74.21875 
Q 40.921875 74.21875 44.703125 73.484375 
Q 48.484375 72.75 52.59375 71.296875 
z
" id="DejaVuSans-36"/>
      </defs>
      <g transform="translate(24.7 27.089865)scale(0.1 -0.1)">
       <use xlink:href="#DejaVuSans-36"/>
       <use x="63.623047" xlink:href="#DejaVuSans-30"/>
      </g>
     </g>
    </g>
    <g id="text_15">
     <!-- Entertainment -->
     <defs>
      <path d="M 9.8125 72.90625 
L 55.90625 72.90625 
L 55.90625 64.59375 
L 19.671875 64.59375 
L 19.671875 43.015625 
L 54.390625 43.015625 
L 54.390625 34.71875 
L 19.671875 34.71875 
L 19.671875 8.296875 
L 56.78125 8.296875 
L 56.78125 0 
L 9.8125 0 
z
" id="DejaVuSans-45"/>
      <path d="M 9.421875 54.6875 
L 18.40625 54.6875 
L 18.40625 0 
L 9.421875 0 
z
M 9.421875 75.984375 
L 18.40625 75.984375 
L 18.40625 64.59375 
L 9.421875 64.59375 
z
" id="DejaVuSans-69"/>
      <path d="M 52 44.1875 
Q 55.375 50.25 60.0625 53.125 
Q 64.75 56 71.09375 56 
Q 79.640625 56 84.28125 50.015625 
Q 88.921875 44.046875 88.921875 33.015625 
L 88.921875 0 
L 79.890625 0 
L 79.890625 32.71875 
Q 79.890625 40.578125 77.09375 44.375 
Q 74.3125 48.1875 68.609375 48.1875 
Q 61.625 48.1875 57.5625 43.546875 
Q 53.515625 38.921875 53.515625 30.90625 
L 53.515625 0 
L 44.484375 0 
L 44.484375 32.71875 
Q 44.484375 40.625 41.703125 44.40625 
Q 38.921875 48.1875 33.109375 48.1875 
Q 26.21875 48.1875 22.15625 43.53125 
Q 18.109375 38.875 18.109375 30.90625 
L 18.109375 0 
L 9.078125 0 
L 9.078125 54.6875 
L 18.109375 54.6875 
L 18.109375 46.1875 
Q 21.1875 51.21875 25.484375 53.609375 
Q 29.78125 56 35.6875 56 
Q 41.65625 56 45.828125 52.96875 
Q 50 49.953125 52 44.1875 
z
" id="DejaVuSans-6d"/>
     </defs>
     <g transform="translate(18.620312 202.328125)rotate(-90)scale(0.1 -0.1)">
      <use xlink:href="#DejaVuSans-45"/>
      <use x="63.183594" xlink:href="#DejaVuSans-6e"/>
      <use x="126.5625" xlink:href="#DejaVuSans-74"/>
      <use x="165.771484" xlink:href="#DejaVuSans-65"/>
      <use x="227.294922" xlink:href="#DejaVuSans-72"/>
      <use x="268.408203" xlink:href="#DejaVuSans-74"/>
      <use x="307.617188" xlink:href="#DejaVuSans-61"/>
      <use x="368.896484" xlink:href="#DejaVuSans-69"/>
      <use x="396.679688" xlink:href="#DejaVuSans-6e"/>
      <use x="460.058594" xlink:href="#DejaVuSans-6d"/>
      <use x="557.470703" xlink:href="#DejaVuSans-65"/>
      <use x="618.994141" xlink:href="#DejaVuSans-6e"/>
      <use x="682.373047" xlink:href="#DejaVuSans-74"/>
     </g>
    </g>
   </g>
   <g id="line2d_14">
    <path clip-path="url(#pcbe236da8e)" d="M 44.425 287.859999 
L 47.468182 285.955666 
L 50.511364 284.051333 
L 53.554545 282.147 
L 56.597727 280.242667 
L 59.640909 278.338334 
L 62.684091 276.434001 
L 65.727273 274.529668 
L 68.770455 272.625335 
L 71.813636 270.721002 
L 74.856818 268.816669 
L 77.9 266.912336 
L 80.943182 265.008003 
L 83.986364 263.10367 
L 87.029545 261.199337 
L 90.072727 259.295004 
L 93.115909 257.390671 
L 96.159091 255.486338 
L 99.202273 253.582005 
L 102.245455 251.677672 
L 105.288636 249.773339 
L 108.331818 247.869006 
L 111.375 245.964673 
L 114.418182 244.06034 
L 117.461364 242.156007 
L 120.504545 240.251674 
L 123.547727 238.347341 
L 126.590909 236.443008 
L 129.634091 234.538675 
L 132.677273 232.634342 
L 135.720455 230.730009 
L 138.763636 228.825676 
L 141.806818 226.921343 
L 144.85 225.01701 
L 147.893182 223.112677 
L 150.936364 221.208344 
L 153.979545 219.304011 
L 157.022727 217.399678 
L 160.065909 215.495345 
L 163.109091 213.591012 
L 166.152273 211.686679 
L 169.195455 209.782346 
L 172.238636 207.878013 
L 175.281818 205.97368 
L 178.325 204.069347 
L 181.368182 202.165014 
L 184.411364 200.260681 
L 187.454545 198.356348 
L 190.497727 196.452015 
L 193.540909 194.547682 
L 196.584091 192.643349 
L 199.627273 190.739016 
L 202.670455 188.834683 
L 205.713636 186.93035 
L 208.756818 185.026017 
L 211.8 183.121684 
L 214.843182 181.217351 
L 217.886364 179.313018 
L 220.929545 177.408685 
L 223.972727 175.504352 
L 227.015909 173.600019 
L 230.059091 171.695686 
L 233.102273 169.791353 
L 236.145455 167.88702 
L 239.188636 165.982687 
L 242.231818 164.078354 
L 245.275 162.174021 
L 248.318182 160.269688 
L 251.361364 158.365355 
L 254.404545 156.461022 
L 257.447727 154.556689 
L 260.490909 152.652356 
L 263.534091 150.748023 
L 266.577273 148.84369 
L 269.620455 146.939357 
L 272.663636 145.035024 
L 275.706818 143.130691 
L 278.75 141.226358 
L 281.793182 139.322025 
L 284.836364 137.417692 
L 287.879545 135.513359 
L 290.922727 133.609026 
L 293.965909 131.704693 
L 297.009091 129.80036 
L 300.052273 127.896027 
L 303.095455 125.991694 
L 306.138636 124.087361 
L 309.181818 122.183028 
L 312.225 120.278695 
L 315.268182 118.374362 
L 318.311364 116.470029 
L 321.354545 114.565696 
L 324.397727 112.661363 
L 327.440909 110.75703 
L 330.484091 108.852697 
L 333.527273 106.948364 
L 336.570455 105.044031 
L 339.613636 103.139698 
L 342.656818 101.235365 
L 345.7 99.331032 
" style="fill:none;stroke:#1f77b4;stroke-linecap:square;stroke-width:2.25;"/>
   </g>
   <g id="patch_3">
    <path d="M 44.425 318.2 
L 44.425 14.3 
" style="fill:none;stroke:#000000;stroke-linecap:square;stroke-linejoin:miter;stroke-width:0.8;"/>
   </g>
   <g id="patch_4">
    <path d="M 44.425 318.2 
L 345.7 318.2 
" style="fill:none;stroke:#000000;stroke-linecap:square;stroke-linejoin:miter;stroke-width:0.8;"/>
   </g>
  </g>
 </g>
 <defs>
  <clipPath id="pcbe236da8e">
   <rect height="303.9" width="301.275" x="44.425" y="14.3"/>
  </clipPath>
 </defs>
</svg>
